/* XPM */
static char *_3f9ce6113c7451288cf7b156bd95a7b[] = {
/* columns rows colors chars-per-pixel */
"64 64 92 1 ",
"  c #36281A",
". c #3A2C1C",
"X c #3F301E",
"o c #393735",
"O c #3C3935",
"+ c #3C3C3C",
"@ c #463523",
"# c #493723",
"$ c #4C3A25",
"% c #4B3D2E",
"& c #513E26",
"* c #523F28",
"= c #4B3E31",
"- c #423F3A",
"; c #524026",
": c #594427",
"> c #554229",
", c #5B462B",
"< c #5E492C",
"1 c #4D4234",
"2 c #46413B",
"3 c #544534",
"4 c #574836",
"5 c #5D4A33",
"6 c #534739",
"7 c #564B3D",
"8 c #5C4C39",
"9 c #61472A",
"0 c #644C2E",
"q c #6A4F2E",
"w c #67502F",
"e c #6B502F",
"r c #644D33",
"t c #694E30",
"y c #624F3A",
"u c #655037",
"i c #6C5232",
"p c #65513C",
"a c #69543B",
"s c #6F5A3F",
"d c #725533",
"f c #765834",
"g c #7A5A35",
"h c #705639",
"j c #755B3A",
"k c #7A5C3B",
"l c #7C603F",
"z c #494A4A",
"x c #5C5143",
"c c #575049",
"v c #5D554B",
"b c #595653",
"n c #5D5A56",
"m c #5B5B5B",
"M c #635544",
"N c #695742",
"B c #6D5A42",
"V c #60574B",
"C c #645A4E",
"Z c #685C4F",
"A c #725B43",
"S c #785E40",
"D c #735E48",
"F c #615B53",
"G c #625E59",
"H c #7A6243",
"J c #77634C",
"K c #6E6050",
"L c #6D655C",
"P c #726554",
"I c #7F6A52",
"U c #74695B",
"Y c #6C6A68",
"T c #726D67",
"R c #74716D",
"E c #797776",
"W c #7E7B78",
"Q c #815E36",
"! c #81603B",
"~ c #836744",
"^ c #876846",
"/ c #8B6C46",
"( c #816748",
") c #856E52",
"_ c #80715D",
"` c #807263",
"' c #867A6D",
"] c #837E77",
"[ c #938778",
"{ c #938D87",
"} c #93918E",
"| c #949291",
/* pixels */
"4Aj8~/j7s~j4~~j8~/j7s~j4~Ha8~/j64S/~8aH~4k~B5S/~8A^~4k^s8k/~8sS4",
"3uu>hjw>jlh;hju>hju>j!h;hh5>kk0@#rjk>0hh*h!h>ujh;rjh;hlh>wjh;uu3",
"3t9$0w,$ege$0i9$0r,&ege$0e9$tt:..>tt$<w0$igi&,r0$0e0$egi&,w0$9r3",
"4hi$00<$0fe&0fi$9r,#0fe&0jt$<q:..>w<$9j0$qg0$,w<$ed0$eg0$,05$eh4",
"4ht$$<,&9fq$0j0#$<,&0dt$0dq#dd*..*dd$rd0$td9$,<&#wd0$0d0$,<#$th4",
"4iq$,t9#0f0#>iq$,i0#9dq#:i0$fd* .*dg$0i:#0fr$rt,$0i:$0h0#0e,$th4",
"3u0$0h0#,h0#<i9$0d0#<d0#<d0#dd,  ,dd$0d9#0d,@0f9$0i<#qd,#0h0$9r3",
"35,$0f0#>i0#gh,&0dt#*i0$fg0$dg9  9gd$0gg#qi>#0h9$<dg#0i>#0fw$<01",
"%5:$dg0#dQq$gd:#dg0$dQq#gd,&fh>  *df&,df$qQd#0gd$:dg$egf$0kq$,5%",
"=5,$fg0#ege$gi,$fg0#ege$fd,&fg,  ,gg&,df$qgq#0gg$:eg$igt#0gf$:0=",
"30:#ggr$0ge$gi,#gg0$0ge$gi,$gQ9. 0Qf$,dg$eg9#qgg$:ig$eg9$0gg#,53",
"155#dkw$<jt&jh,#hkr$<jt&dd<$dk0..0Qd$<ah&tj0$rkf$,hh&ihr$tkf#,r1",
"obv@2nv#2nv$2nv@2nv#2nV$2nv#2Fc  cG-$vn-$vn-#vn2@vn2@Vn-#vF-@vbo",
"mKp@3Bu#yp3$uAy@3Bu#up6$uAp$3Ny  yN3$pAu&3pr$yB3@yAu&3xu#uA3@pKm",
"LSq#ef9$f0;&gQe#eg9$h0&&gQw&qd,  9dt&tgg&;rg#9fi#eQg&*0f#0de#qSL",
"8dq$fd,$di<&gge#dd,#dd<$ggr&dd*  *id&tQf&,ih$,if$egg$<dd$,df$qh7",
"3r<$0t,&hge$0e<$0e,&hge$0t<&di:..>qd$<t0$egh&,w0$<e0$egh&,tw$<03",
"6it$0r,$tge&0fw$0w,&wgi$9d0$0r>..>t0$rd0&egw$<w0$qd0&igq$,w0$wi4",
"4hq$,0<$9fe$0fe$,0,$0fe$0dq#0q>..:00$qd0$ef0$<0,$ef0$ef0$,0,$th4",
"4it$$<<$0hq$<d0$$<<$0dw$0d0$fd>..>dg#0d0$qd5$<9#$wd<$rh0$<9$$wi4",
"4at$<i9$0d0@>ie$<d0#0d0#*d0$fd> .*df$0i*@qd9#0dr$ri>#0f9#0h9$th4",
"3u9$0j0#:eq#ei<$9dq#>i0#ef0#df,  ,fd$0ft#0i>@td9$9ie#0q:#0d0$<r3",
"19:$tg0#<dq$gd,$tf0#9dq$gf9$df,  9gd$9gg#qf9#0fq$,if$qd9#0fr$,51",
"%5<#dg9$ggq#gi,$dk0$fgq$fd,&gd>  *dg&:df$ekf#0gd$,dg$qQd$0gd#,<%",
"1r:#gg0#0gq#fd:#fg0#0gt$gd,$gg<  9gg&,dg$eg0#0kg#>df#eg0#0gk$,01",
"39:$ggt$0ge$gd:#fQ0$0ge$gd:$gQ0. 0Qg$:ig$tg0$0gg$:dg$eg0#qgg#,03",
"=x8$uBp$3Ba&uB7$yAy$3Bp&uB8#uAy..yAi$4Nu$as4$pBu#8Bu$aB4$pAu$78=",
"+mv$2nV$2bv$2nV$-nV$2nv#2nV$2nv..vn-$Vn2#vn2$Vn2$Vn2$vn2#Vn-$Vb+",
"YDt#rhe#j0*$fkt#0ju$h0%&jjt$0h9  9h9$ukh$>uh$wj0#tlj$;rf$th<@iDY",
"VSe#df<$ht>&gQe#dd9$dt>&gge$th,  ,hi&tQf$:wd#9de#eQg&>ud#<fd$tSV",
"4ir$ii:$hd9&dg0$di,$ff9&df0&di>..>id&0gd;0dd$:id$0fd&9dh$,id$0a4",
"30<$0w<$dgd$0t<$9t,$dgq&0e<$dt>..>eh$<t9$igi&<w0$<e0$eQd$<t0$903",
"3he$0r<$0gi$0fe$9t,&0gd$0d0$<0:..>0<$qd0&qg0$90r$qgr$eg0$<w0$tj3",
"5hr$*9<$0fe$0fe$;5,$0dq$0f0$qq,..>ee$9d0$tf0$,0&#tf9#qd0$<9;$th4",
"3iq$&09#0d0$,ie#*r9$0d0$,d0#gd:..>dg$0d,#0d0$00&$th,$qd0$90;$ti4",
"4ar$0f0#<h0#>iw$0h0#9d0#*i0$gd*  >dg$0i>@0d0#0d0$0i>#0h9#0h0$qu4",
"3r,$rf0#>e0$dd,$0h0#*d0#fk0#dg,  ,gd$0gd$0q*@0dq$,dd#0i*#0h0$<03",
"%5,$qg0#egq$gd:$eg9#egq#gf9$ff*  :fg$9fg$qQt#0ft$,dg$qge#0gi$,5=",
"=5,$fg0#iQq#gi>$fgq#dgq#gd,&gf:  :dg&,df#qQd#0kd$:dd$qQd#0gf#,<=",
"39,#gg0$9ge$gi,$gg0#0gt$fd9$gg9. 9gg$,dg#qg0#0gg$:dg$qf9#0gg#,r1",
"3r,#ggt$5fi;fd,$gg0$rgt&gd,#gk0..tQg$:dg$qk9$tkg#,ig&ifr$qkg#*03",
"Ocx$6CV$1CM$6Vx$6Cv$=CV$6Vx#4Zx..xZ6@xV6$MC1$xC6$xV6$MC1$xC6$xc-",
"zFM#6CM$1CM$6ZV$6ZM$1VM#4TTv7Cx..xC7VRT4$MC1$VC4$VC4$vC=$VZ6$xVz",
"YD0&kQq$0fe$fg0$gQi&rgt&S[}](!q..q!(]|[S$tj0&iQg&0gg$tg0&qQg&tDY",
"xr9$ggt&0fe#gh,$ggt$rge1{_r6])9..0)]65_{=qf0$wgg$,dg$qg0$0gg$,u8",
"3,&&ggt#0fe#q9*$gg0$9fe%|P&&E)0. 9)E$$P|1qg<#rgg$*9q#qg0#0Qf$*34",
"40**gg0#0fe$90,&gg0#9ge*'UxxLA:  ,ALcxU'*qg0#0gg&,09$qf0#0gg&*04",
"yhq$gk0#0gi$0gt&gQ0#0gi$fT]Tu0&  &0iT]`d&qg0#0Qg$tgr$qf0#tQg&dh8",
"3dt$gQe#0fe$0ge$fQe#0ft&gkh10d,  <dr>akg$eg9#eQg$eg0$ig9$qQg$eh3",
"1dq#ege#de,$dge#ege#de,&ggq$0d9  9d9$tgg;,td#ege$qgd&:td#qge#ed1",
"4dq#ef0$fq;&gQe#ef0$fe;;gQq$rd,  ,dq&rQg&;ef$0fe#eQg&&0f$9fe#ef3",
"8dq$fi,$di<$gge$fi,$di,$ggt$fi> .>ih&tgf$<id#,if$egg&,df#,ig$qh5",
"30,$tt,$fge$0e,$0w<$dge$0t<&di;..>id&<tw$igf$<t0$<ew$egh$,ww$<03",
"4it$9t,$tge&dge$00,$qgq&0i0$9w:..>q9$0i0$igt$,w0$0fd$egw$<w9$qu3",
"4hq$,0<$0fe&gQe$,r<$0gt$0fr#00>X.>00$0j0$ef0$<0:$eQg;if0&,0,$ef4",
"6at#$45$<h0$jjw#$,5$5hr$<hr$jh>..3hf#0h<$uh<#55##tkh$wh<$55$#ua3",
"obv$-bv@2nv#2nv#-bc@-nv@-nv#-nc. cn2#vn2@vn-#vn-$Mn2#vn-@vb-$VbO",
"mV8$3Nu@%Mu#8N7$5Nu#%My#uAy#rB5  8B0@yBu#rM%#8N3$7Nr#ya%#8N3$7Vm",
"GN,$tfq@<dq#di,$ef9@<dq$gg9$ff:. :gd$0kf$qd9#0ft$,id$0d9#9ft$:NG",
"=5:#dk0$fQq#gd,$dg0$fQq#gi,$gd;  ;dg&,df$qQf#0kd$3dg#tQf$rkd#,5=",
"15,$gg9#0gq#gi:$gg0$0ge$gi,&gg9. 9gg&,df$qg0#9gg#:ig$qfq#0Qf$,<1",
"39:$gge$0gq&gd:$ggq#0ge&gd,$gQ9..9Qg$:dg&eg9$qQg$,dg&ef9$0gf$,r3",
"30:@ed:@:e9$ie:@id<#:e9#eq&@qd:..:dq#&qi$9e:#,ii#>ed$9e,#9de#:<3",
"6<&X9:$X&;$X99&X9:#.&;#X9:#X$;$..$;$X#:9X#;$X#:9X&99X#&&.#:9X&53"
};
